# xmcd
#
# Track frame offsets:
#	150
#	15200
#	29197
#	44144
#	58544
#	73495
#	88075
#	102294
#	116447
#	128479
#	142050
#	155938
#	168655
#	181942
#	195479
#	208111
#	220716
#	234103
#	248066
#	262153
#	276484
#	290485
#	304903
#	316931
#	329738
#
# Disc length: 4562 seconds
#
# Revision: 1
# Processed by: cddbd v1.4PL0 Copyright (c) Steve Scherf et al.
# Submitted via: EasyCDDAExtractor 5.1.0
#
DISCID=8a11d019
DTITLE=Various Artist - Cincinnati Blues
DYEAR=2001
DGENRE=Samba
TTITLE0=Crazy Blues
TTITLE1=Various Artist - I've Got Salvation In My Heart
TTITLE2=Various Artist - Lonesome John
TTITLE3=Various Artist - Fisher's Hornpipe
TTITLE4=Various Artist - Court Street Blues
TTITLE5=Various Artist - A Woman Gets Tired Of The Same Man All The Time
TTITLE6=Various Artist - A Chicken Can Waltz The Gravy Around
TTITLE7=Various Artist - Red Slats
TTITLE8=Various Artist - Cincinnati Southern Blues
TTITLE9=Various Artist - Sixth Street Moan
TTITLE10=Various Artist - Hey Hey Mama Blues
TTITLE11=Various Artist - Hard Hearted Mama Blues
TTITLE12=Various Artist - Niagra Fall Blues
TTITLE13=Various Artist - Newport Blues
TTITLE14=Various Artist - George Street Stomp
TTITLE15=Various Artist - Tear It Down
TTITLE16=Various Artist - Cincinnati Underworld
TTITLE17=Various Artist - Sing Song Blues
TTITLE18=Various Artist - M and O Blues
TTITLE19=Various Artist - Have You Ever Worried In Mind, pt.1
TTITLE20=Various Artist - Have You Ever Worried In Mind, pt.2
TTITLE21=Various Artist - Your Baby Can't Get Enough
TTITLE22=Various Artist - Keep Your Yes Ma'am Clean
TTITLE23=Various Artist - Black Spider Blues
TTITLE24=Various Artist - Weep And Moan When I'm Gone
EXTD=
EXTT0=
EXTT1=
EXTT2=
EXTT3=
EXTT4=
EXTT5=
EXTT6=
EXTT7=
EXTT8=
EXTT9=
EXTT10=
EXTT11=
EXTT12=
EXTT13=
EXTT14=
EXTT15=
EXTT16=
EXTT17=
EXTT18=
EXTT19=
EXTT20=
EXTT21=
EXTT22=
EXTT23=
EXTT24=
PLAYORDER=
